<?xml version="1.0" encoding="UTF-8"?>
<svg version="1.1" viewBox="0 0 1600 1600" width="100" height="100" xmlns="http://www.w3.org/2000/svg">
<path transform="translate(0)" d="m0 0h1600v1600h-1600z" fill="#FEFEFE"/>
<path transform="translate(1553)" d="m0 0h47v1600h-47z"/>
<path transform="translate(0)" d="m0 0h43l-1 90-1 173v1048l1 195 1 94h-43z"/>
<path transform="translate(883,638)" d="m0 0h50l39 1 3 1 3 10 4 22 5 15 2 4 5 2h5l4-17 1-6 1-30 24-1h62l9 1 2 7 8 55 6 65 1 13v18l-1 1h-69l-3-1-3-16-5-36-4-38-2-9-3-2-5 1-8 11-7 26-4 13-4 21-4 24-3 5-14 1h-19l-19-1-7-2-7-26-10-38-5-20-5-13-6-9-2-1v5l-4 8-5 25-2 14-2 57-1 1h-51l-22-1-2-5-1-21 1-30 2-21 10-4 15-5 15-8 16-12 10-9 7-14 1-8-5-12-1-9z" fill="#030303"/>
<path transform="translate(550,638)" d="m0 0h52l56 1-1 5-13 17-14 19-13 17-26 39-15 23-7 14-1 4h12l20-1 11-4 9-5 9-12 4-3 7-2 19-1 7 3 1 1-1 10-4 13-3 16-3 5-2 1-9 1h-165l-6-1 3-9 10-18 12-19 8-12 15-23 22-33 10-13 5-10 1-4-13 2-16 6-13 9-10 9-8 6-2 1h-15l-3-3-1-4v-17l2-22 3-3 8-1 19-1z" fill="#030303"/>
<path transform="translate(693,639)" d="m0 0h87l1 1-3 60-4 62-3 33-2 5h-74l-1-1v-17l1-33v-56l-1-36-1-11-1-6z" fill="#030303"/>
</svg>
